<svg width="194" height="61" viewBox="0 0 194 61" fill="none" xmlns="http://www.w3.org/2000/svg">
<rect width="193.235" height="60.1176" rx="9" fill="black"/>
<path d="M176.59 0H16.6454C7.4524 0 0 7.45241 0 16.6454V43.4722C0 52.6652 7.4524 60.1176 16.6454 60.1176H176.59C185.783 60.1176 193.235 52.6652 193.235 43.4722V16.6454C193.235 7.45241 185.783 0 176.59 0Z" fill="black"/>
<path d="M49.003 34.2875C48.063 33.058 47.5933 31.6728 47.5933 30.1332C47.5933 28.7298 48.0365 27.444 48.9212 26.2767C49.398 25.6433 50.1746 24.9107 51.2508 24.0785C50.5426 23.2838 49.8343 22.6628 49.1255 22.2156C47.8451 21.4085 46.3943 21.0049 44.7734 21.0049C43.8065 21.0049 42.628 21.2159 41.2389 21.6385C39.9039 22.0607 38.9298 22.2721 38.3171 22.2721C37.8537 22.2721 36.914 22.0859 35.4974 21.7131C34.0671 21.3405 32.8615 21.1543 31.8808 21.1543C29.5379 21.1543 27.6036 22.0486 26.078 23.8369C24.5388 25.6502 23.769 27.9727 23.769 30.8044C23.769 33.81 24.7705 36.9333 26.7727 40.1749C28.8022 43.3916 30.8523 45.0002 32.9228 45.0002C33.6175 45.0002 34.5166 44.789 35.6197 44.3667C36.7233 43.9572 37.6904 43.752 38.5214 43.752C39.4065 43.752 40.4351 43.9507 41.6065 44.3479C42.846 44.745 43.7997 44.9437 44.4671 44.9437C46.2105 44.9437 47.9612 43.7265 49.7181 41.2924C50.8621 39.74 51.6999 38.1876 52.2311 36.635C51.0188 36.2994 49.9429 35.517 49.003 34.2875Z" fill="white"/>
<path d="M42.0556 19.8869C42.914 19.1045 43.5473 18.2474 43.9561 17.3161C44.3509 16.3846 44.548 15.5399 44.548 14.7822C44.548 14.7327 44.5451 14.6705 44.5377 14.5959C44.5316 14.5214 44.5279 14.4595 44.5279 14.4098C44.5142 14.3725 44.4973 14.3041 44.477 14.2049C44.4566 14.1056 44.4397 14.0373 44.4257 14C42.0283 14.5095 40.3257 15.4285 39.3176 16.7574C38.2963 18.0988 37.7648 19.6946 37.7239 21.5451C38.6366 21.4705 39.3446 21.3651 39.8488 21.2284C40.5849 21.0048 41.3196 20.5575 42.0556 19.8869Z" fill="white"/>
<path d="M71.5102 13.9344H72.1805L75.5317 22H74.691L73.6459 19.4781H70.0221L68.9883 22H68.1363L71.5102 13.9344ZM73.4642 18.8533L71.8397 14.8659L70.1925 18.8533H73.4642ZM77.9125 22L75.5155 16.0814H76.3221L78.3442 21.2275L80.3776 16.0814H81.1387L78.7418 22H77.9125ZM81.5875 20.296C81.5875 19.9249 81.6936 19.6068 81.9056 19.3418C82.1177 19.0691 82.4092 18.8609 82.7803 18.717C83.159 18.5655 83.5945 18.4898 84.0867 18.4898C84.3745 18.4898 84.6737 18.5125 84.9842 18.5579C85.2947 18.6034 85.5711 18.6715 85.8135 18.7624V18.2626C85.8135 17.7627 85.6658 17.3651 85.3704 17.0698C85.0751 16.7744 84.6661 16.6267 84.1435 16.6267C83.8255 16.6267 83.5112 16.6873 83.2007 16.8085C82.8977 16.9221 82.5796 17.0925 82.2464 17.3197L81.9511 16.7744C82.3373 16.5093 82.716 16.3124 83.0871 16.1837C83.4581 16.0474 83.8368 15.9792 84.2231 15.9792C84.9501 15.9792 85.5257 16.1875 85.9498 16.604C86.3739 17.0205 86.5859 17.5961 86.5859 18.3307V21.0685C86.5859 21.1745 86.6087 21.254 86.6541 21.307C86.6995 21.3525 86.7715 21.379 86.8699 21.3866V22C86.7866 22.0076 86.7147 22.0151 86.6541 22.0227C86.5935 22.0303 86.5481 22.0303 86.5178 22.0227C86.3284 22.0151 86.1845 21.9546 86.0861 21.841C85.9876 21.7274 85.9346 21.6062 85.9271 21.4774L85.9157 21.0458C85.6506 21.3866 85.306 21.6516 84.8819 21.841C84.4578 22.0227 84.0261 22.1136 83.5869 22.1136C83.2082 22.1136 82.8636 22.0341 82.5531 21.875C82.2502 21.7084 82.0116 21.4888 81.8375 21.2162C81.6708 20.9359 81.5875 20.6292 81.5875 20.296ZM85.5522 20.7504C85.6355 20.6444 85.6999 20.5421 85.7453 20.4437C85.7907 20.3452 85.8135 20.2581 85.8135 20.1824V19.319C85.556 19.2206 85.2871 19.1449 85.0069 19.0918C84.7343 19.0388 84.4578 19.0123 84.1776 19.0123C83.6248 19.0123 83.1779 19.1221 82.8371 19.3418C82.4963 19.5614 82.3259 19.8605 82.3259 20.2392C82.3259 20.4588 82.3827 20.6671 82.4963 20.864C82.6099 21.0533 82.7765 21.2124 82.9962 21.3411C83.2158 21.4623 83.4733 21.5229 83.7687 21.5229C84.1397 21.5229 84.4843 21.4509 84.8024 21.307C85.1281 21.1631 85.378 20.9776 85.5522 20.7504ZM88.255 22V16.0814H89.0274V22H88.255ZM88.255 14.8432V13.7072H89.0274V14.8432H88.255ZM90.763 13.7072H91.5354V20.6595C91.5354 20.9549 91.5884 21.148 91.6945 21.2389C91.8005 21.3298 91.9292 21.3752 92.0807 21.3752C92.217 21.3752 92.3534 21.3601 92.4897 21.3298C92.626 21.2995 92.7434 21.2692 92.8418 21.2389L92.9782 21.8637C92.8343 21.9243 92.6563 21.9735 92.4442 22.0114C92.2398 22.0492 92.0618 22.0682 91.9103 22.0682C91.5619 22.0682 91.2817 21.9659 91.0697 21.7614C90.8652 21.557 90.763 21.2767 90.763 20.9208V13.7072ZM93.3469 20.296C93.3469 19.9249 93.4529 19.6068 93.665 19.3418C93.877 19.0691 94.1686 18.8609 94.5397 18.717C94.9184 18.5655 95.3538 18.4898 95.8461 18.4898C96.1339 18.4898 96.433 18.5125 96.7436 18.5579C97.0541 18.6034 97.3305 18.6715 97.5728 18.7624V18.2626C97.5728 17.7627 97.4252 17.3651 97.1298 17.0698C96.8344 16.7744 96.4255 16.6267 95.9029 16.6267C95.5848 16.6267 95.2705 16.6873 94.96 16.8085C94.6571 16.9221 94.339 17.0925 94.0058 17.3197L93.7104 16.7744C94.0967 16.5093 94.4753 16.3124 94.8464 16.1837C95.2175 16.0474 95.5962 15.9792 95.9824 15.9792C96.7095 15.9792 97.285 16.1875 97.7092 16.604C98.1333 17.0205 98.3453 17.5961 98.3453 18.3307V21.0685C98.3453 21.1745 98.368 21.254 98.4135 21.307C98.4589 21.3525 98.5309 21.379 98.6293 21.3866V22C98.546 22.0076 98.4741 22.0151 98.4135 22.0227C98.3529 22.0303 98.3074 22.0303 98.2772 22.0227C98.0878 22.0151 97.9439 21.9546 97.8455 21.841C97.747 21.7274 97.694 21.6062 97.6864 21.4774L97.6751 21.0458C97.41 21.3866 97.0654 21.6516 96.6413 21.841C96.2172 22.0227 95.7855 22.1136 95.3463 22.1136C94.9676 22.1136 94.623 22.0341 94.3125 21.875C94.0096 21.7084 93.771 21.4888 93.5968 21.2162C93.4302 20.9359 93.3469 20.6292 93.3469 20.296ZM97.3116 20.7504C97.3949 20.6444 97.4592 20.5421 97.5047 20.4437C97.5501 20.3452 97.5728 20.2581 97.5728 20.1824V19.319C97.3153 19.2206 97.0465 19.1449 96.7663 19.0918C96.4936 19.0388 96.2172 19.0123 95.937 19.0123C95.3841 19.0123 94.9373 19.1221 94.5965 19.3418C94.2557 19.5614 94.0853 19.8605 94.0853 20.2392C94.0853 20.4588 94.1421 20.6671 94.2557 20.864C94.3693 21.0533 94.5359 21.2124 94.7556 21.3411C94.9752 21.4623 95.2327 21.5229 95.528 21.5229C95.8991 21.5229 96.2437 21.4509 96.5618 21.307C96.8874 21.1631 97.1374 20.9776 97.3116 20.7504ZM102.911 22.1136C102.449 22.1136 102.021 21.9962 101.627 21.7614C101.234 21.5191 100.927 21.2162 100.707 20.8526V22H100.014V13.7072H100.787V17.3197C101.052 16.9183 101.37 16.5964 101.741 16.3541C102.112 16.1042 102.544 15.9792 103.036 15.9792C103.453 15.9792 103.824 16.0663 104.149 16.2405C104.483 16.4147 104.767 16.6494 105.001 16.9448C105.236 17.2326 105.414 17.562 105.535 17.9331C105.656 18.2966 105.717 18.6715 105.717 19.0578C105.717 19.4743 105.645 19.8643 105.501 20.2278C105.365 20.5914 105.168 20.917 104.911 21.2048C104.653 21.485 104.354 21.7084 104.013 21.875C103.68 22.0341 103.313 22.1136 102.911 22.1136ZM102.729 21.432C103.047 21.432 103.343 21.3676 103.615 21.2389C103.888 21.1101 104.123 20.9322 104.32 20.705C104.517 20.4778 104.668 20.2241 104.774 19.9438C104.88 19.6561 104.933 19.3607 104.933 19.0578C104.933 18.6412 104.842 18.2512 104.661 17.8877C104.486 17.5166 104.24 17.2212 103.922 17.0016C103.612 16.7744 103.244 16.6608 102.82 16.6608C102.517 16.6608 102.233 16.729 101.968 16.8653C101.711 17.0016 101.48 17.1834 101.275 17.4106C101.078 17.6302 100.916 17.8725 100.787 18.1376V19.9779C100.817 20.1824 100.897 20.3755 101.025 20.5573C101.154 20.7315 101.313 20.8829 101.503 21.0117C101.699 21.1404 101.904 21.2427 102.116 21.3184C102.328 21.3941 102.532 21.432 102.729 21.432ZM107.06 13.7072H107.832V20.6595C107.832 20.9549 107.885 21.148 107.991 21.2389C108.097 21.3298 108.226 21.3752 108.377 21.3752C108.514 21.3752 108.65 21.3601 108.786 21.3298C108.923 21.2995 109.04 21.2692 109.139 21.2389L109.275 21.8637C109.131 21.9243 108.953 21.9735 108.741 22.0114C108.536 22.0492 108.358 22.0682 108.207 22.0682C107.859 22.0682 107.578 21.9659 107.366 21.7614C107.162 21.557 107.06 21.2767 107.06 20.9208V13.7072ZM112.677 22.1136C112.253 22.1136 111.859 22.0341 111.495 21.875C111.132 21.7084 110.817 21.485 110.552 21.2048C110.287 20.917 110.079 20.5876 109.928 20.2165C109.784 19.8454 109.712 19.4478 109.712 19.0237C109.712 18.4708 109.837 17.9634 110.087 17.5014C110.344 17.0395 110.696 16.6722 111.143 16.3995C111.59 16.1193 112.097 15.9792 112.665 15.9792C113.249 15.9792 113.756 16.1193 114.188 16.3995C114.627 16.6797 114.971 17.0508 115.221 17.5128C115.471 17.9672 115.596 18.467 115.596 19.0123C115.596 19.0729 115.596 19.1335 115.596 19.1941C115.596 19.2471 115.592 19.2887 115.585 19.319H110.518C110.556 19.7431 110.674 20.1218 110.871 20.455C111.075 20.7807 111.336 21.042 111.654 21.2389C111.98 21.4282 112.332 21.5229 112.711 21.5229C113.097 21.5229 113.461 21.4244 113.801 21.2275C114.15 21.0306 114.392 20.7731 114.528 20.455L115.199 20.6368C115.077 20.917 114.892 21.1707 114.642 21.3979C114.392 21.6251 114.097 21.8031 113.756 21.9318C113.423 22.053 113.063 22.1136 112.677 22.1136ZM110.496 18.7624H114.869C114.839 18.3307 114.722 17.9521 114.517 17.6264C114.32 17.3007 114.059 17.047 113.733 16.8653C113.415 16.6759 113.063 16.5813 112.677 16.5813C112.291 16.5813 111.938 16.6759 111.62 16.8653C111.302 17.047 111.041 17.3045 110.836 17.6378C110.64 17.9634 110.526 18.3383 110.496 18.7624ZM122.205 22.1136C121.781 22.1136 121.388 22.0341 121.024 21.875C120.668 21.7084 120.358 21.485 120.093 21.2048C119.835 20.917 119.634 20.5914 119.49 20.2278C119.347 19.8567 119.275 19.4667 119.275 19.0578C119.275 18.6337 119.347 18.2398 119.49 17.8763C119.634 17.5052 119.839 17.1796 120.104 16.8994C120.369 16.6116 120.679 16.3882 121.035 16.2291C121.399 16.0625 121.793 15.9792 122.217 15.9792C122.641 15.9792 123.031 16.0625 123.387 16.2291C123.743 16.3882 124.053 16.6116 124.318 16.8994C124.584 17.1796 124.788 17.5052 124.932 17.8763C125.076 18.2398 125.148 18.6337 125.148 19.0578C125.148 19.4667 125.076 19.8567 124.932 20.2278C124.788 20.5914 124.584 20.917 124.318 21.2048C124.061 21.485 123.75 21.7084 123.387 21.875C123.031 22.0341 122.637 22.1136 122.205 22.1136ZM120.058 19.0691C120.058 19.5084 120.153 19.9098 120.342 20.2733C120.539 20.6292 120.801 20.9132 121.126 21.1253C121.452 21.3298 121.812 21.432 122.205 21.432C122.599 21.432 122.959 21.326 123.285 21.1139C123.61 20.9019 123.872 20.6141 124.069 20.2506C124.265 19.8795 124.364 19.4781 124.364 19.0464C124.364 18.6071 124.265 18.2058 124.069 17.8422C123.872 17.4787 123.61 17.1909 123.285 16.9789C122.959 16.7668 122.599 16.6608 122.205 16.6608C121.812 16.6608 121.452 16.7706 121.126 16.9902C120.808 17.2099 120.551 17.5014 120.354 17.865C120.157 18.2209 120.058 18.6223 120.058 19.0691ZM131.415 22H130.643V18.6942C130.643 17.9975 130.541 17.4901 130.336 17.172C130.132 16.8463 129.81 16.6835 129.371 16.6835C129.068 16.6835 128.768 16.7593 128.473 16.9107C128.178 17.0546 127.916 17.2553 127.689 17.5128C127.47 17.7627 127.311 18.0505 127.212 18.3762V22H126.44V16.0814H127.144V17.4219C127.303 17.1341 127.511 16.8842 127.769 16.6722C128.026 16.4525 128.318 16.2821 128.643 16.161C128.969 16.0398 129.306 15.9792 129.655 15.9792C129.98 15.9792 130.257 16.0398 130.484 16.161C130.711 16.2821 130.893 16.4563 131.029 16.6835C131.165 16.9031 131.264 17.172 131.324 17.4901C131.385 17.8006 131.415 18.149 131.415 18.5352V22ZM138.798 21.716C138.738 21.7387 138.643 21.7804 138.514 21.841C138.385 21.9015 138.23 21.9546 138.048 22C137.867 22.0454 137.67 22.0682 137.458 22.0682C137.238 22.0682 137.03 22.0265 136.833 21.9432C136.643 21.8599 136.492 21.7349 136.378 21.5683C136.265 21.3941 136.208 21.1821 136.208 20.9322V16.6949H135.39V16.0814H136.208V14.0821H136.98V16.0814H138.344V16.6949H136.98V20.7163C136.996 20.9284 137.071 21.0874 137.208 21.1934C137.352 21.2995 137.514 21.3525 137.696 21.3525C137.908 21.3525 138.101 21.3184 138.276 21.2502C138.45 21.1745 138.556 21.1215 138.594 21.0912L138.798 21.716ZM144.739 22H143.966V18.6942C143.966 18.0278 143.849 17.5279 143.614 17.1947C143.38 16.8539 143.043 16.6835 142.603 16.6835C142.315 16.6835 142.028 16.7593 141.74 16.9107C141.46 17.0546 141.21 17.2553 140.99 17.5128C140.778 17.7627 140.627 18.0505 140.536 18.3762V22H139.763V13.7072H140.536V17.4219C140.771 16.9827 141.096 16.6343 141.513 16.3768C141.937 16.1117 142.387 15.9792 142.865 15.9792C143.205 15.9792 143.493 16.0398 143.728 16.161C143.97 16.2821 144.163 16.4601 144.307 16.6949C144.459 16.9221 144.569 17.1909 144.637 17.5014C144.705 17.8044 144.739 18.149 144.739 18.5352V22ZM148.942 22.1136C148.518 22.1136 148.124 22.0341 147.761 21.875C147.397 21.7084 147.083 21.485 146.818 21.2048C146.553 20.917 146.345 20.5876 146.193 20.2165C146.049 19.8454 145.977 19.4478 145.977 19.0237C145.977 18.4708 146.102 17.9634 146.352 17.5014C146.61 17.0395 146.962 16.6722 147.409 16.3995C147.855 16.1193 148.363 15.9792 148.931 15.9792C149.514 15.9792 150.021 16.1193 150.453 16.3995C150.892 16.6797 151.237 17.0508 151.487 17.5128C151.737 17.9672 151.862 18.467 151.862 19.0123C151.862 19.0729 151.862 19.1335 151.862 19.1941C151.862 19.2471 151.858 19.2887 151.85 19.319H146.784C146.822 19.7431 146.939 20.1218 147.136 20.455C147.34 20.7807 147.602 21.042 147.92 21.2389C148.245 21.4282 148.598 21.5229 148.976 21.5229C149.363 21.5229 149.726 21.4244 150.067 21.2275C150.415 21.0306 150.658 20.7731 150.794 20.455L151.464 20.6368C151.343 20.917 151.157 21.1707 150.907 21.3979C150.658 21.6251 150.362 21.8031 150.021 21.9318C149.688 22.053 149.328 22.1136 148.942 22.1136ZM146.761 18.7624H151.135C151.104 18.3307 150.987 17.9521 150.783 17.6264C150.586 17.3007 150.324 17.047 149.999 16.8653C149.681 16.6759 149.328 16.5813 148.942 16.5813C148.556 16.5813 148.204 16.6759 147.886 16.8653C147.568 17.047 147.306 17.3045 147.102 17.6378C146.905 17.9634 146.791 18.3383 146.761 18.7624Z" fill="white"/>
<path d="M74.1284 28.5444H75.6757L81.5801 43H79.6256L77.9153 38.7651H71.848L70.1582 43H68.2036L74.1284 28.5444ZM77.5081 37.3399L74.902 30.6618L72.2145 37.3399H77.5081ZM88.9455 43.2036C88.0768 43.2036 87.3031 42.9864 86.6245 42.5521C85.9458 42.1177 85.4097 41.568 85.016 40.9029V47.3367H83.2243V32.3721H84.8124V34.3674C85.2332 33.7158 85.7829 33.1933 86.4616 32.7996C87.1403 32.3924 87.88 32.1888 88.6808 32.1888C89.4138 32.1888 90.0857 32.3381 90.6965 32.6368C91.3073 32.9354 91.8366 33.3426 92.2846 33.8584C92.7325 34.3741 93.0786 34.9646 93.3229 35.6297C93.5808 36.2812 93.7098 36.9667 93.7098 37.686C93.7098 38.6905 93.5062 39.6135 93.099 40.455C92.7053 41.2965 92.1488 41.9684 91.4294 42.4706C90.71 42.9593 89.8821 43.2036 88.9455 43.2036ZM88.3958 41.6562C88.9252 41.6562 89.4002 41.5477 89.821 41.3305C90.2553 41.0997 90.6218 40.8011 90.9204 40.4346C91.2326 40.0546 91.4702 39.627 91.633 39.152C91.7959 38.6769 91.8774 38.1883 91.8774 37.686C91.8774 37.1567 91.7823 36.6545 91.5923 36.1794C91.4159 35.7043 91.158 35.2836 90.8186 34.9171C90.4929 34.5506 90.106 34.2656 89.6581 34.062C89.2238 33.8448 88.7487 33.7362 88.2329 33.7362C87.9071 33.7362 87.5678 33.7973 87.2149 33.9194C86.8756 34.0416 86.5498 34.2181 86.2376 34.4488C85.9254 34.666 85.6608 34.9171 85.4436 35.2021C85.2264 35.4872 85.0839 35.7926 85.016 36.1183V39.152C85.2196 39.6135 85.4911 40.0342 85.8304 40.4143C86.1698 40.7943 86.5634 41.0997 87.0113 41.3305C87.4592 41.5477 87.9207 41.6562 88.3958 41.6562ZM101.631 43.2036C100.762 43.2036 99.9884 42.9864 99.3097 42.5521C98.631 42.1177 98.0949 41.568 97.7013 40.9029V47.3367H95.9096V32.3721H97.4977V34.3674C97.9184 33.7158 98.4682 33.1933 99.1468 32.7996C99.8255 32.3924 100.565 32.1888 101.366 32.1888C102.099 32.1888 102.771 32.3381 103.382 32.6368C103.993 32.9354 104.522 33.3426 104.97 33.8584C105.418 34.3741 105.764 34.9646 106.008 35.6297C106.266 36.2812 106.395 36.9667 106.395 37.686C106.395 38.6905 106.191 39.6135 105.784 40.455C105.391 41.2965 104.834 41.9684 104.115 42.4706C103.395 42.9593 102.567 43.2036 101.631 43.2036ZM101.081 41.6562C101.61 41.6562 102.085 41.5477 102.506 41.3305C102.941 41.0997 103.307 40.8011 103.606 40.4346C103.918 40.0546 104.155 39.627 104.318 39.152C104.481 38.6769 104.563 38.1883 104.563 37.686C104.563 37.1567 104.468 36.6545 104.278 36.1794C104.101 35.7043 103.843 35.2836 103.504 34.9171C103.178 34.5506 102.791 34.2656 102.343 34.062C101.909 33.8448 101.434 33.7362 100.918 33.7362C100.592 33.7362 100.253 33.7973 99.9001 33.9194C99.5608 34.0416 99.2351 34.2181 98.9229 34.4488C98.6107 34.666 98.346 34.9171 98.1288 35.2021C97.9117 35.4872 97.7691 35.7926 97.7013 36.1183V39.152C97.9049 39.6135 98.1763 40.0342 98.5157 40.4143C98.855 40.7943 99.2486 41.0997 99.6965 41.3305C100.144 41.5477 100.606 41.6562 101.081 41.6562ZM122.52 31.578C122.357 31.388 122.14 31.2048 121.868 31.0283C121.597 30.8519 121.291 30.6958 120.952 30.56C120.613 30.4107 120.239 30.2954 119.832 30.2139C119.438 30.1189 119.024 30.0714 118.59 30.0714C117.477 30.0714 116.656 30.2818 116.127 30.7026C115.597 31.1233 115.333 31.7002 115.333 32.4332C115.333 32.9489 115.468 33.3561 115.74 33.6548C116.011 33.9534 116.425 34.1977 116.982 34.3877C117.552 34.5777 118.271 34.7746 119.14 34.9782C120.144 35.1953 121.013 35.46 121.746 35.7722C122.479 36.0844 123.042 36.5052 123.436 37.0345C123.829 37.5503 124.026 38.2425 124.026 39.1112C124.026 39.8035 123.891 40.4075 123.619 40.9233C123.361 41.4255 122.995 41.8463 122.52 42.1856C122.045 42.5114 121.488 42.7557 120.85 42.9186C120.212 43.0679 119.52 43.1425 118.773 43.1425C118.04 43.1425 117.321 43.0679 116.615 42.9186C115.923 42.7557 115.265 42.5249 114.64 42.2263C114.016 41.9277 113.432 41.5544 112.889 41.1065L113.765 39.5592C113.982 39.7899 114.26 40.0207 114.6 40.2514C114.952 40.4686 115.346 40.6722 115.78 40.8622C116.228 41.0522 116.71 41.2083 117.226 41.3305C117.742 41.4391 118.271 41.4934 118.814 41.4934C119.846 41.4934 120.647 41.3101 121.217 40.9436C121.787 40.5636 122.072 40.0139 122.072 39.2945C122.072 38.7515 121.909 38.3172 121.583 37.9914C121.271 37.6657 120.803 37.3942 120.178 37.177C119.554 36.9599 118.794 36.7427 117.898 36.5255C116.921 36.2812 116.099 36.0165 115.434 35.7315C114.769 35.4329 114.267 35.046 113.928 34.571C113.602 34.0959 113.439 33.4783 113.439 32.7182C113.439 31.7952 113.663 31.0147 114.111 30.3768C114.559 29.7389 115.176 29.257 115.964 28.9312C116.751 28.6055 117.64 28.4426 118.631 28.4426C119.282 28.4426 119.886 28.5105 120.443 28.6462C121.013 28.7819 121.542 28.972 122.031 29.2163C122.52 29.4606 122.968 29.7524 123.375 30.0918L122.52 31.578ZM131.45 42.4706C131.3 42.5385 131.097 42.6267 130.839 42.7353C130.581 42.8439 130.282 42.9389 129.943 43.0204C129.604 43.1018 129.244 43.1425 128.864 43.1425C128.43 43.1425 128.029 43.0679 127.663 42.9186C127.296 42.7557 127.004 42.5114 126.787 42.1856C126.57 41.8463 126.462 41.4255 126.462 40.9233V33.7769H125.016V32.3721H126.462V28.8294H128.253V32.3721H130.635V33.7769H128.253V40.3736C128.28 40.7536 128.409 41.0387 128.64 41.2287C128.871 41.4051 129.142 41.4934 129.454 41.4934C129.807 41.4934 130.133 41.4323 130.432 41.3101C130.73 41.188 130.927 41.0997 131.022 41.0454L131.45 42.4706ZM137.613 43.2036C136.812 43.2036 136.086 43.0611 135.435 42.776C134.783 42.4774 134.22 42.077 133.745 41.5748C133.27 41.059 132.903 40.4686 132.645 39.8035C132.387 39.1384 132.259 38.4394 132.259 37.7064C132.259 36.9599 132.387 36.2541 132.645 35.589C132.903 34.9239 133.27 34.3402 133.745 33.838C134.22 33.3222 134.783 32.9218 135.435 32.6368C136.1 32.3381 136.833 32.1888 137.634 32.1888C138.421 32.1888 139.14 32.3381 139.792 32.6368C140.443 32.9218 141.007 33.3222 141.482 33.838C141.97 34.3402 142.344 34.9239 142.601 35.589C142.859 36.2541 142.988 36.9599 142.988 37.7064C142.988 38.4394 142.859 39.1384 142.601 39.8035C142.344 40.4686 141.977 41.059 141.502 41.5748C141.027 42.077 140.457 42.4774 139.792 42.776C139.14 43.0611 138.414 43.2036 137.613 43.2036ZM134.091 37.7268C134.091 38.4597 134.247 39.1248 134.559 39.722C134.885 40.3193 135.313 40.7943 135.842 41.1472C136.371 41.4866 136.962 41.6562 137.613 41.6562C138.265 41.6562 138.855 41.4798 139.385 41.1269C139.927 40.774 140.355 40.2989 140.667 39.7017C140.993 39.0909 141.156 38.419 141.156 37.686C141.156 36.9531 140.993 36.288 140.667 35.6908C140.355 35.0935 139.927 34.6185 139.385 34.2656C138.855 33.9127 138.265 33.7362 137.613 33.7362C136.962 33.7362 136.371 33.9194 135.842 34.2859C135.313 34.6388 134.885 35.1139 134.559 35.7111C134.247 36.3083 134.091 36.9802 134.091 37.7268ZM150.779 33.9398C149.883 33.9534 149.089 34.1841 148.397 34.632C147.718 35.0664 147.236 35.6704 146.951 36.4441V43H145.159V32.3721H146.829V34.8356C147.195 34.1027 147.677 33.5122 148.274 33.0643C148.885 32.6028 149.523 32.3449 150.188 32.2906C150.324 32.2906 150.439 32.2906 150.534 32.2906C150.629 32.2906 150.711 32.2974 150.779 32.311V33.9398ZM157.02 43.2036C156.219 43.2036 155.487 43.0611 154.821 42.776C154.17 42.4774 153.6 42.077 153.111 41.5748C152.636 41.059 152.263 40.4686 151.991 39.8035C151.733 39.1384 151.605 38.4326 151.605 37.686C151.605 36.6816 151.835 35.7654 152.297 34.9374C152.758 34.1095 153.396 33.4444 154.211 32.9422C155.039 32.4399 155.982 32.1888 157.041 32.1888C158.113 32.1888 159.043 32.4467 159.83 32.9625C160.631 33.4647 161.248 34.1298 161.683 34.9578C162.131 35.7722 162.355 36.6545 162.355 37.6046C162.355 37.7403 162.348 37.8761 162.334 38.0118C162.334 38.134 162.327 38.229 162.314 38.2968H153.498C153.552 38.9891 153.742 39.6067 154.068 40.1496C154.407 40.679 154.842 41.0997 155.371 41.4119C155.9 41.7105 156.471 41.8598 157.081 41.8598C157.733 41.8598 158.344 41.697 158.914 41.3712C159.497 41.0454 159.898 40.6179 160.115 40.0885L161.662 40.5161C161.432 41.0319 161.086 41.4934 160.624 41.9006C160.176 42.3078 159.64 42.6267 159.016 42.8575C158.405 43.0882 157.74 43.2036 157.02 43.2036ZM153.437 37.0549H160.685C160.631 36.3626 160.434 35.7518 160.095 35.2225C159.755 34.6931 159.321 34.2791 158.792 33.9805C158.262 33.6819 157.679 33.5326 157.041 33.5326C156.416 33.5326 155.839 33.6819 155.31 33.9805C154.781 34.2791 154.346 34.6931 154.007 35.2225C153.681 35.7518 153.491 36.3626 153.437 37.0549Z" fill="white"/>
</svg>
