<svg width="203" height="79" viewBox="0 0 203 79" fill="none" xmlns="http://www.w3.org/2000/svg">
<rect width="203" height="79" fill="#C3C3C3"/>
<g id="Frame 1815">
<g id="Layer 3">
<path id="Vector" d="M70 69L71.0653 69.7833C73.754 71.7619 76.7843 73.2542 80.0276 74.0476C81.2011 74.3346 82.3983 74.5406 83.6091 74.6588C87.4273 75.0335 91.2625 74.5406 94.8373 73.2407C96.4741 72.6465 98.0332 71.8463 99.5145 70.9313L102.636 69.0034" stroke="#B3DB47" stroke-width="6.71" stroke-miterlimit="10" stroke-linecap="round"/>
</g>
<g id="Layer 1">
<path id="Vector_2" d="M0 14.2824H4.05838V5.89889L4.18013 5.77734H12.8245V14.1608L12.9462 14.2824H20.5354V21.4098H12.8245V38.3794C12.8245 39.0951 13.2235 40.1148 13.7951 40.5672C14.2517 40.9285 15.3812 41.2526 15.9494 41.2526H20.5354V48.5422C16.5244 48.4004 12.1143 49.1432 8.46848 47.0971C4.99857 45.1523 4.09558 41.3742 4.05499 37.6501V21.4065H0V14.279L0 14.2824Z" fill="black"/>
<path id="Vector_3" d="M78.895 64.9043V57.5337H81.8576C82.1079 57.5337 82.8282 57.3919 83.0988 57.3142C83.8124 57.1116 84.4245 56.6018 84.6951 55.913C84.8033 55.6396 84.9792 54.9272 84.9792 54.657V14.2793H93.6641V54.7415C93.38 61.3692 90.4005 64.3877 83.7955 64.8199L83.5993 64.9043H78.8916H78.895Z" fill="black"/>
<path id="Vector_4" d="M90.0957 0.0278549C96.1427 0.61534 96.0581 9.62344 90.1363 10.1501C82.3746 10.8389 82.0466 0.665985 88.6347 0.0278549C89.0134 -0.00928496 89.7169 -0.00928496 90.0957 0.0278549Z" fill="black"/>
<path id="Vector_5" d="M72.8886 0.0278549C79.3177 0.652479 79.081 10.687 71.5459 10.1569C65.3129 9.71797 65.2926 0.625469 71.4276 0.0278549C71.8063 -0.00928496 72.5098 -0.00928496 72.8886 0.0278549Z" fill="black"/>
<path id="Vector_6" d="M127.027 19.0599V14.2823H135.793V48.5455H127.027V43.6059L125.204 45.6317C120.422 49.8724 113.104 50.1966 107.716 46.8776C98.8994 41.4451 97.6785 27.2543 103.78 19.3941C109.482 12.0506 121.231 11.6117 127.027 19.0633V19.0599ZM117.027 21.3524C110.046 21.9669 107.253 29.9891 109.749 35.8572C113.327 44.2745 125.093 42.9037 126.824 33.9665C128.096 27.4163 124.325 20.7075 117.023 21.3524H117.027Z" fill="black"/>
<path id="Vector_7" d="M194.152 19.0599V14.2823H202.918V48.5455H194.152V43.6059L192.329 45.6317C187.547 49.8724 180.229 50.1966 174.841 46.8776C166.024 41.4451 164.803 27.2543 170.905 19.3941C176.607 12.0506 188.356 11.6117 194.152 19.0633V19.0599ZM184.152 21.3524C177.171 21.9669 174.378 29.9891 176.874 35.8572C180.452 44.2745 192.218 42.9037 193.949 33.9665C195.221 27.4163 191.45 20.7075 184.148 21.3524H184.152Z" fill="black"/>
<path id="Vector_8" d="M35.4701 2.7793V18.4118C37.7529 15.6601 41.2533 13.9922 44.8416 13.7896C53.5603 13.3 59.056 18.6245 59.4991 27.1937V48.5389H50.8107V28.6489C50.6721 18.5907 35.7339 18.5941 35.4667 28.5679V48.5389H26.7852V2.7793H35.4701Z" fill="black"/>
<path id="Vector_9" d="M163.552 13.7971V22.8693C160.931 22.8558 158.1 22.687 155.818 24.1793C153.771 25.5164 153.197 27.8832 152.997 30.196V48.5464H144.315V14.2833H153V19.466L154.948 17.0755C157.265 14.9079 160.346 13.662 163.552 13.7971Z" fill="black"/>
<path id="Vector_10" d="M76.4593 14.2832H67.7744V48.5464H76.4593V14.2832Z" fill="black"/>
</g>
</g>
</svg>
