<svg width="194" height="61" viewBox="0 0 194 61" fill="none" xmlns="http://www.w3.org/2000/svg">
<rect width="193.235" height="60.1176" rx="9" fill="black"/>
<path d="M176.59 0H16.6454C7.4524 0 0 7.45241 0 16.6454V43.4722C0 52.6652 7.4524 60.1176 16.6454 60.1176H176.59C185.783 60.1176 193.235 52.6652 193.235 43.4722V16.6454C193.235 7.45241 185.783 0 176.59 0Z" fill="black"/>
<path d="M23.9905 16.9697C23.3392 17.5766 23 18.3868 23 19.28V39.76C23 40.6375 23.322 41.4476 23.9547 42.0374L37.2178 28.9804L23.9891 16.9697H23.9905Z" fill="#3BCCFF"/>
<path d="M47.8429 26.6976L43.0621 24.0996L38.1096 28.9749L39.3949 30.1386L44.0726 34.3897L47.8415 32.3314C48.9207 31.7403 49.572 30.6954 49.572 29.5145C49.572 28.3336 48.9207 27.2887 47.8415 26.6976H47.8429Z" fill="#FFD400"/>
<path d="M42.6026 23.6465L28.5337 16.0044C27.42 15.3961 26.1175 15.4133 25.0383 16.0545C24.815 16.1891 24.5931 16.3408 24.4213 16.5097L37.6501 28.5204L42.6026 23.6451V23.6465Z" fill="#48FF48"/>
<path d="M37.6501 29.4287L24.387 42.4857C24.5759 42.6718 24.7978 42.8407 25.0382 42.9752C25.5865 43.313 26.2034 43.4647 26.8203 43.4647C27.4029 43.4647 28.0026 43.3302 28.5336 43.0267L43.6132 34.845L38.9354 30.5939L37.6501 29.4301V29.4287Z" fill="#FF3333"/>
<path d="M70.7841 18.2483V17.126L74.1052 17.1195V20.669C73.5963 21.1648 73.07 21.5389 72.5262 21.7912C71.9825 22.0391 71.4236 22.1631 70.8494 22.1631C70.0838 22.1631 69.4009 21.9717 68.8006 21.5889C68.2003 21.2062 67.724 20.6472 67.3717 19.9121C67.0237 19.177 66.8497 18.294 66.8497 17.2631C66.8497 16.2191 67.0259 15.31 67.3782 14.5357C67.7306 13.7614 68.1916 13.1916 68.7615 12.8262C69.3313 12.4565 70.0055 12.2716 70.7841 12.2716C71.3583 12.2716 71.8607 12.3782 72.2913 12.5913C72.722 12.8045 73.0765 13.1068 73.3549 13.4983C73.6333 13.8898 73.842 14.427 73.9812 15.1099L73.0482 15.4231C72.9221 14.8837 72.7633 14.4813 72.5719 14.216C72.3805 13.9463 72.1282 13.7353 71.815 13.5831C71.5018 13.4309 71.1495 13.3547 70.758 13.3547C70.1882 13.3547 69.6967 13.4939 69.2834 13.7723C68.8746 14.0464 68.544 14.4748 68.2917 15.0577C68.0437 15.6406 67.9198 16.3518 67.9198 17.1913C67.9198 18.4701 68.1873 19.4293 68.7223 20.0687C69.2573 20.7038 69.9533 21.0213 70.8102 21.0213C71.2191 21.0213 71.6367 20.9234 72.063 20.7277C72.4936 20.5319 72.8351 20.2992 73.0874 20.0295V18.2483H70.7841Z" fill="white"/>
<path d="M76.0651 22V12.4348H81.735V13.5635H77.1025V16.4931H81.4414V17.6154H77.1025V20.8712H81.9177V22H76.0651Z" fill="white"/>
<path d="M85.5891 22V13.5635H83.0053V12.4348H89.2234V13.5635H86.6265V22H85.5891Z" fill="white"/>
<path d="M94.0831 22V12.4348H95.1205V22H94.0831Z" fill="white"/>
<path d="M98.6727 22V13.5635H96.0889V12.4348H102.307V13.5635H99.7101V22H98.6727Z" fill="white"/>
<path d="M106.675 17.3413C106.675 15.7102 107.034 14.4574 107.752 13.5831C108.47 12.7044 109.364 12.2651 110.434 12.2651C111.125 12.2651 111.756 12.4609 112.326 12.8523C112.896 13.2438 113.346 13.8136 113.676 14.5618C114.011 15.3056 114.179 16.193 114.179 17.2239C114.179 18.6419 113.857 19.7968 113.213 20.6885C112.504 21.6716 111.576 22.1631 110.427 22.1631C109.27 22.1631 108.339 21.6585 107.635 20.6494C106.995 19.7359 106.675 18.6332 106.675 17.3413ZM107.746 17.3609C107.746 18.5397 108.004 19.4554 108.522 20.1078C109.044 20.756 109.677 21.08 110.421 21.08C111.182 21.08 111.819 20.7516 112.332 20.0948C112.85 19.438 113.109 18.4723 113.109 17.1978C113.109 16.3757 112.976 15.6406 112.711 14.9924C112.506 14.4966 112.198 14.1007 111.784 13.8049C111.375 13.5048 110.927 13.3547 110.44 13.3547C109.657 13.3547 109.011 13.681 108.502 14.3334C107.998 14.9859 107.746 15.9951 107.746 17.3609Z" fill="white"/>
<path d="M115.891 22V12.4348H116.954L121.078 19.9447V12.4348H122.07V22H121.006L116.889 14.4835V22H115.891Z" fill="white"/>
<path d="M79.5146 43.8936H78.066C78.0031 43.5085 77.9229 42.2919 77.9172 41.6077C77.0254 43.2724 75.6657 44.2199 73.0462 44.2199C68.8266 44.2199 66.2429 41.0122 66.2429 36.21C66.2429 31.6611 68.9181 28.1084 73.3726 28.1084C77.3761 28.1084 79.0852 30.4659 79.5847 32.7446H77.6381C77.1242 31.3004 75.9605 29.9062 73.3597 29.9062C70.0146 29.9062 68.244 32.6301 68.244 36.0883C68.244 39.7297 70.0317 42.415 73.3139 42.415C76.1051 42.415 77.6867 40.776 77.6867 37.7315V37.2692H73.3511V35.4356H79.5146V43.8921V43.8936Z" fill="white"/>
<path d="M91.7199 38.3847C91.7199 41.4436 90.0094 44.199 86.5884 44.199C83.3664 44.199 81.5671 41.4436 81.5671 38.4005C81.5671 35.3574 83.4738 32.5791 86.6815 32.5791C89.8892 32.5791 91.7199 35.4748 91.7199 38.3862V38.3847ZM83.4007 38.4005C83.4007 40.4903 84.5558 42.5028 86.6499 42.5028C88.744 42.5028 89.8748 40.622 89.8748 38.4205C89.8748 36.2191 88.724 34.2739 86.6056 34.2739C84.4872 34.2739 83.4007 36.1905 83.4007 38.3991V38.4005Z" fill="white"/>
<path d="M103.162 38.3847C103.162 41.4436 101.452 44.199 98.0308 44.199C94.8088 44.199 93.0096 41.4436 93.0096 38.4005C93.0096 35.3574 94.9162 32.5791 98.1239 32.5791C101.332 32.5791 103.162 35.4748 103.162 38.3862V38.3847ZM94.8431 38.4005C94.8431 40.4903 95.9983 42.5028 98.0924 42.5028C100.186 42.5028 101.317 40.622 101.317 38.4205C101.317 36.2191 100.166 34.2739 98.048 34.2739C95.9296 34.2739 94.8431 36.1905 94.8431 38.3991V38.4005Z" fill="white"/>
<path d="M114.338 42.4546C114.338 46.5984 113.155 49.0246 109.226 49.0246C105.296 49.0246 104.721 46.5354 104.539 45.2429H106.367C106.65 46.3622 107.345 47.3628 109.324 47.3628C112.108 47.3628 112.574 45.2901 112.574 42.5662V41.9679C111.997 43.2533 110.968 44.0835 108.989 44.0835C106.301 44.0835 104.439 41.6416 104.439 38.5226C104.439 34.9971 106.655 32.5781 109.221 32.5781C111.401 32.5781 112.283 33.7218 112.574 34.5749C112.579 34.0424 112.598 33.1879 112.629 32.883H114.357C114.338 33.9479 114.338 35.0143 114.338 36.0793V42.4546ZM106.278 38.4367C106.278 40.6997 107.562 42.3444 109.432 42.3444C111.424 42.3444 112.616 40.9144 112.616 38.3136C112.616 35.7128 111.486 34.3187 109.532 34.3187C107.316 34.3187 106.277 36.3713 106.277 38.4382L106.278 38.4367Z" fill="white"/>
<path d="M116.687 43.8943V27.5352H118.478V43.8943H116.687Z" fill="white"/>
<path d="M122.074 38.87C122.174 40.9827 123.406 42.5314 125.337 42.5314C126.826 42.5314 127.647 41.8286 128.158 40.7608H129.949C129.437 42.3998 128.09 44.199 125.243 44.199C121.83 44.199 120.279 41.3162 120.279 38.422C120.279 35.0969 122.194 32.5791 125.198 32.5791C128.814 32.5791 130.088 35.6408 130.088 38.3261C130.088 38.5121 130.088 38.6567 130.082 38.87H122.075H122.074ZM128.221 37.3985C128.14 36.0903 127.539 34.1894 125.185 34.1894C123.233 34.1894 122.277 35.5979 122.112 37.3985H128.221Z" fill="white"/>
<path d="M138.302 28.4355H144.582C147.906 28.4355 149.419 30.4194 149.419 32.9844C149.419 36.0218 147.615 37.7137 144.648 37.7137H140.199V43.8944H138.304V28.4355H138.302ZM140.198 35.8744H144.376C146.212 35.8744 147.495 35.2489 147.495 33.0202C147.495 31.2682 146.477 30.2691 144.376 30.2691H140.198V35.8744Z" fill="white"/>
<path d="M151.055 43.8943V27.5352H152.845V43.8943H151.055Z" fill="white"/>
<path d="M163.598 41.1702C163.598 42.2423 163.654 43.6407 163.686 43.8955H161.982C161.906 43.4933 161.874 42.6488 161.869 42.2852C161.368 43.4275 160.29 44.2004 158.272 44.2004C155.579 44.2004 154.59 42.3139 154.59 40.6635C154.59 37.8451 156.804 37.0622 159.524 37.0622H161.846V36.4767C161.846 35.273 161.398 34.1479 159.371 34.1479C157.546 34.1479 157.116 35.0768 156.927 36.086H155.137C155.25 34.626 156.097 32.5791 159.365 32.5791C162.829 32.5791 163.599 34.5372 163.599 36.3565V41.1716L163.598 41.1702ZM161.844 38.5308C161.548 38.5236 160.908 38.5236 159.567 38.5236C157.383 38.5236 156.356 39.0847 156.356 40.5547C156.356 41.6511 157.058 42.5715 158.637 42.5715C161.166 42.5715 161.846 40.8625 161.846 39.0074V38.5293L161.844 38.5308Z" fill="white"/>
<path d="M166.579 32.8823C168.6 38.2829 169.701 41.3746 169.986 42.305H170.017C170.351 41.2186 171.323 38.0581 173.141 32.8823H175L171.268 43.337C169.581 48.0663 168.964 49.0224 166.569 49.0224C166.22 49.0224 165.659 48.9795 165.327 48.9065V47.0887C165.695 47.1474 166.133 47.176 166.376 47.176C167.661 47.176 168.155 46.5562 169.023 44.3948L164.611 32.8809H166.581L166.579 32.8823Z" fill="white"/>
</svg>
